<svg width="678" height="466" viewBox="0 0 678 466" fill="none" xmlns="http://www.w3.org/2000/svg">
<path d="M241.241 214.589C230.888 197.977 225.143 178.908 224.594 159.342C224.046 139.775 228.713 120.415 238.118 103.249L292.909 133.267C288.831 140.711 286.807 149.106 287.045 157.591C287.283 166.075 289.774 174.344 294.263 181.548L241.241 214.589Z" fill="#FEF0C7"/>
<path d="M239.33 101.096C246.573 88.5506 256.216 77.5548 267.708 68.7364C279.201 59.9179 292.318 53.4494 306.31 49.7002C320.302 45.9509 334.896 44.9944 349.258 46.8852C363.62 48.776 377.469 53.4771 390.014 60.72L358.777 114.825C353.337 111.684 347.331 109.646 341.104 108.826C334.876 108.006 328.547 108.421 322.48 110.046C316.412 111.672 310.724 114.477 305.741 118.301C300.757 122.125 296.576 126.893 293.435 132.333L239.33 101.096Z" fill="#EFF8E2"/>
<path d="M396.933 247.437C384.958 255.588 371.495 261.301 357.312 264.249C343.13 267.198 328.505 267.324 314.274 264.62C300.042 261.917 286.483 256.437 274.369 248.493C262.256 240.549 251.825 230.297 243.674 218.322L295.319 183.167C298.854 188.359 303.377 192.805 308.63 196.25C313.882 199.694 319.762 202.071 325.933 203.243C332.105 204.415 338.446 204.361 344.596 203.082C350.746 201.804 356.585 199.326 361.777 195.792L396.933 247.437Z" fill="#EFF8E2"/>
<path d="M396.707 64.9108C411.721 75.077 423.997 88.7875 432.45 104.829C440.902 120.87 445.27 138.748 445.166 156.879C445.063 175.011 440.491 192.837 431.857 208.781C423.222 224.725 410.79 238.294 395.661 248.288L361.225 196.161C367.786 191.827 373.176 185.943 376.921 179.029C380.665 172.115 382.647 164.385 382.692 156.523C382.737 148.66 380.843 140.908 377.178 133.952C373.513 126.996 368.189 121.051 361.679 116.642L396.707 64.9108Z" fill="#FCC93D"/>
<path d="M8.49426 9.25L127.606 53.7339C180.189 73.3717 198.697 138.335 164.359 182.737L145.187 207.529C140.269 213.889 138.825 222.273 141.333 229.911L150.937 259.16C165.543 303.643 197.783 340.171 240.106 360.191V360.191C282.821 380.396 315.247 417.408 329.66 462.411L334.16 476.461" stroke="url(#paint0_linear_697_6983)" stroke-width="3.31747" stroke-linecap="round"/>
<path d="M37.2461 10.9084L156.358 55.3923C208.94 75.0302 227.449 139.993 193.111 184.395L173.939 209.188C169.021 215.547 167.577 223.932 170.085 231.57L179.689 260.819C194.295 305.301 226.535 341.829 268.858 361.849V361.849C311.573 382.055 343.999 419.067 358.412 464.069L362.911 478.119" stroke="url(#paint1_linear_697_6983)" stroke-width="3.31747" stroke-linecap="round"/>
<path d="M1.85938 51.824L73.7756 66.0438C104.721 72.1624 130.351 93.7509 141.64 123.206V123.206C149.553 143.85 149.744 166.658 142.177 187.432L124.776 235.205C123.939 237.503 123.697 239.976 124.071 242.393V242.393C133.366 302.329 179.567 350.278 238.994 362.413V362.413C290.968 373.026 333.671 410.978 349.85 461.497L350.747 464.296" stroke="url(#paint2_linear_697_6983)" stroke-width="3.31747" stroke-linecap="round"/>
<path d="M640.473 9.24976L521.361 53.7336C468.778 73.3715 450.27 138.335 484.608 182.737L503.78 207.529C508.698 213.888 510.142 222.273 507.634 229.911L498.03 259.16C483.423 303.642 451.184 340.171 408.861 360.19V360.19C366.146 380.396 333.72 417.408 319.307 462.41L314.807 476.461" stroke="url(#paint3_linear_697_6983)" stroke-width="3.31747" stroke-linecap="round"/>
<path d="M675.859 50.1653L603.943 64.3851C572.998 70.5037 547.368 92.0922 536.078 121.547V121.547C528.166 142.192 527.975 164.999 535.542 185.773L552.943 233.546C553.78 235.844 554.022 238.317 553.647 240.734V240.734C544.352 300.671 498.151 348.619 438.725 360.754V360.754C386.751 371.368 344.048 409.319 327.868 459.838L326.972 462.638" stroke="url(#paint4_linear_697_6983)" stroke-width="3.31747" stroke-linecap="round"/>
<rect x="290.479" y="372.275" width="107.265" height="107.265" rx="53.6325" fill="#22221F"/>
<path d="M346.131 463.141C345.615 462.555 345.146 460.617 344.677 456.74C343.786 449.393 343.739 447.95 344.63 448.627C345.193 449.077 347.445 447.094 357.296 437.583C366.538 428.613 369.165 425.818 368.742 425.367C368.133 424.601 367.898 424.601 375.638 425.728C380.564 426.494 382.487 426.945 383.238 427.621L384.317 428.523L365.928 446.283C355.795 456.019 347.398 463.998 347.21 463.998C347.069 463.998 346.6 463.637 346.131 463.141Z" fill="#F9FAFB"/>
<path d="M336.936 426.133V418.02H342.471C347.256 418.02 348.288 418.155 350.071 419.056C355.091 421.445 356.17 427.891 352.229 431.678C350.165 433.661 347.866 434.247 341.909 434.247H336.936V426.133ZM348.804 429.289C349.79 428.252 350.071 427.486 350.071 425.908C350.071 424.826 349.883 423.834 349.649 423.699C349.227 423.429 342.565 430.19 342.565 430.866C342.565 431.047 343.691 431.092 345.052 430.956C346.975 430.731 347.772 430.37 348.804 429.289ZM345.333 425.502C348.148 422.617 348.288 422.347 347.491 421.806C347.022 421.445 345.474 421.175 344.113 421.175H341.627V425.051C341.627 427.17 341.815 428.838 342.002 428.748C342.19 428.703 343.691 427.215 345.333 425.502Z" fill="white"/>
<path d="M310.432 425.367C307.336 425.006 304.521 424.465 304.239 424.195C303.77 423.744 307.57 419.823 322.16 405.714L340.69 387.818V396.248V404.722L330.275 414.729C321.268 423.384 319.955 424.826 320.471 425.412C321.034 426.043 320.799 426.133 318.594 426.088C317.187 426.043 313.528 425.728 310.432 425.367Z" fill="#F9FAFB"/>
<path d="M344.442 461.698C343.269 460.662 338.109 455.839 332.948 450.97C327.788 446.102 319.11 437.943 313.621 432.805C308.179 427.711 303.77 423.429 303.91 423.339C304.004 423.248 307.616 423.519 311.932 423.97L319.813 424.826L332.573 437.087L345.38 449.348L346.084 455.568C347.116 463.907 347.069 463.997 344.442 461.698Z" fill="#FBBB0C"/>
<path d="M375.638 427.35L369.54 426.404L362.738 419.733L355.982 413.061H362.315H368.601L375.169 419.507C378.828 423.023 382.253 426.449 382.909 427.17L383.988 428.387L382.862 428.342C382.253 428.297 379.016 427.846 375.638 427.35Z" fill="#FBBB0C"/>
<g style="mix-blend-mode:hard-light">
<g filter="url(#filter0_d_697_6983)">
<rect x="42.8594" y="38.5544" width="198.344" height="84.233" rx="13.2699" fill="white" shape-rendering="crispEdges"/>
<rect x="64.9758" y="60.6709" width="43.8282" height="40" rx="8" fill="#FFF8E7"/>
<path d="M101.599 82.9072C101.211 82.2922 100.586 81.8517 99.8369 81.6679L94.931 80.4634V69.7594C94.931 68.4007 93.7247 67.2959 92.2427 67.2959H89.1812H89.1787H84.3734H84.3708H81.31C79.828 67.2959 78.6218 68.4007 78.6218 69.7594V71.6422C74.7886 72.0062 71.7904 74.9833 71.7904 78.5899C71.7904 82.1966 74.7892 85.1743 78.6218 85.5377V90.1454C78.6218 91.5041 79.828 92.6089 81.31 92.6089H90.7645L96.2441 93.9543C96.494 94.0158 96.7476 94.0459 97 94.0459C97.5028 94.0459 97.9994 93.9248 98.4466 93.6883C99.1177 93.3329 99.5984 92.7596 99.7989 92.0733L101.889 84.925C102.089 84.2387 101.986 83.5222 101.599 82.9072ZM97.7615 86.9057C96.8722 87.3764 95.7349 87.097 95.2213 86.282C94.7077 85.4664 95.0126 84.4242 95.9019 83.9535C96.7912 83.4828 97.9292 83.7622 98.4422 84.5772C98.9558 85.3928 98.6515 86.435 97.7615 86.9057ZM92.3781 89.7541C91.4887 90.2248 90.3514 89.9454 89.8378 89.1304C89.3242 88.3148 89.6291 87.2726 90.5184 86.8019C91.4078 86.3312 92.5451 86.6106 93.0587 87.4256C93.5723 88.2412 93.2674 89.2834 92.3781 89.7541ZM77.3339 80.6222C77.153 80.2582 77.3289 79.8281 77.7261 79.6629C78.0392 79.5325 78.3966 79.6043 78.6218 79.8182C78.6831 79.8762 78.735 79.9446 78.7736 80.0223C78.8748 80.2257 79.1316 80.3625 79.4124 80.3625C79.7888 80.3625 80.0956 80.1278 80.0956 79.8391C80.0956 79.4571 79.3504 79.3168 79.2657 79.3023C79.0361 79.2623 78.8204 79.2049 78.6218 79.1319C77.709 78.7974 77.1486 78.1366 77.1486 77.3419C77.1486 76.4962 77.7621 75.7734 78.6218 75.4934V75.0175C78.6218 74.6175 78.976 74.2929 79.4124 74.2929C79.8489 74.2929 80.2031 74.6175 80.2031 75.0175V75.4934C80.7711 75.6772 81.2423 76.0557 81.4916 76.5588C81.6725 76.9228 81.4966 77.3524 81.0988 77.5181C80.7856 77.6486 80.4283 77.5767 80.2031 77.3616C80.1417 77.3043 80.0905 77.2359 80.0519 77.1588C79.9507 76.9553 79.6939 76.8185 79.4124 76.8185C79.0361 76.8185 78.7299 77.0533 78.7299 77.3419C78.7299 77.7233 79.475 77.8636 79.5598 77.8787C79.7894 77.9187 80.0045 77.9755 80.2031 78.0491C81.1158 78.383 81.6769 79.0438 81.6769 79.8391C81.6769 80.6842 81.0627 81.4076 80.2031 81.6876V82.1629C80.2031 82.5629 79.8495 82.8875 79.4124 82.8875C78.9753 82.8875 78.6218 82.5629 78.6218 82.1629V81.6876C78.0537 81.5033 77.5831 81.1248 77.3339 80.6222ZM80.2031 90.146V85.5383C84.0362 85.1748 87.0351 82.1977 87.0351 78.5905C87.0351 74.9833 84.0362 72.0062 80.2031 71.6427V69.76C80.2031 69.2007 80.6996 68.7456 81.31 68.7456H83.5827V68.9711C83.5827 69.6905 84.2209 70.2753 85.0059 70.2753H88.5462C89.3312 70.2753 89.9694 69.6905 89.9694 68.9711V68.7456H92.2421C92.8525 68.7456 93.349 69.2007 93.349 69.76V80.0756L92.0352 79.7533C91.2863 79.5695 90.5039 79.664 89.8328 80.0188C89.1616 80.3741 88.6809 80.9474 88.4804 81.6337L86.3905 88.782C86.19 89.4684 86.2931 90.1854 86.6802 90.8004C86.7612 90.9285 86.8523 91.0485 86.9528 91.1604H81.3094C80.699 91.1604 80.2031 90.7053 80.2031 90.146Z" fill="#101828"/>
<path d="M79.467 72.2053C83.4729 72.2053 86.6437 75.1699 86.6438 78.7366C86.6438 82.3033 83.4729 85.2678 79.467 85.2678C75.4612 85.2678 72.2903 82.3033 72.2903 78.7366C72.2903 75.1699 75.4612 72.2053 79.467 72.2053Z" fill="#FFF8E7" stroke="#101828"/>
<path d="M83.0942 77.8378V78.4892H75.8401V77.8378H83.0942ZM83.0942 79.2448V79.8962H75.8401V79.2448H83.0942ZM82.4079 75.4016V82.0719H81.3945L77.6927 77.1799H77.6287V82.0719H76.5264V75.4016H77.5469L81.2487 80.3001H81.3162V75.4016H82.4079Z" fill="#FCC93D"/>
<path d="M137.137 88.6709V72.5862H143.027C144.169 72.5862 145.114 72.7747 145.863 73.1517C146.611 73.5234 147.172 74.0287 147.543 74.6675C147.915 75.301 148.101 76.0157 148.101 76.8116C148.101 77.4818 147.978 78.0472 147.732 78.508C147.486 78.9635 147.156 79.33 146.742 79.6075C146.334 79.8798 145.884 80.0788 145.391 80.2044V80.3615C145.926 80.3877 146.447 80.5605 146.954 80.8799C147.468 81.194 147.892 81.6417 148.227 82.2229C148.562 82.8041 148.729 83.5109 148.729 84.3434C148.729 85.1655 148.536 85.9037 148.148 86.5582C147.766 87.2075 147.174 87.7232 146.373 88.1054C145.572 88.4824 144.549 88.6709 143.302 88.6709H137.137ZM139.564 86.5896H143.067C144.229 86.5896 145.062 86.3645 145.564 85.9142C146.067 85.4639 146.318 84.901 146.318 84.2256C146.318 83.7177 146.19 83.2517 145.933 82.8276C145.677 82.4035 145.31 82.0658 144.834 81.8145C144.363 81.5631 143.802 81.4375 143.153 81.4375H139.564V86.5896ZM139.564 79.5447H142.815C143.36 79.5447 143.85 79.44 144.284 79.2306C144.724 79.0211 145.072 78.7279 145.329 78.3509C145.59 77.9687 145.721 77.5184 145.721 77.0001C145.721 76.3351 145.488 75.7775 145.022 75.3272C144.556 74.8769 143.842 74.6517 142.878 74.6517H139.564V79.5447ZM156.619 88.9144C155.43 88.9144 154.406 88.6604 153.548 88.1525C152.694 87.6394 152.035 86.9195 151.569 85.9927C151.108 85.0607 150.877 83.969 150.877 82.7177C150.877 81.482 151.108 80.3929 151.569 79.4505C152.035 78.508 152.684 77.7723 153.516 77.2435C154.354 76.7147 155.333 76.4503 156.454 76.4503C157.134 76.4503 157.794 76.5629 158.433 76.788C159.072 77.0131 159.645 77.3666 160.153 77.8483C160.661 78.33 161.061 78.9557 161.354 79.7253C161.648 80.4898 161.794 81.4192 161.794 82.5135V83.346H152.205V81.5867H159.493C159.493 80.9689 159.367 80.4217 159.116 79.9453C158.865 79.4635 158.511 79.0839 158.056 78.8064C157.606 78.5289 157.077 78.3902 156.469 78.3902C155.81 78.3902 155.234 78.5525 154.742 78.8771C154.255 79.1965 153.878 79.6154 153.611 80.1337C153.349 80.6469 153.218 81.2045 153.218 81.8066V83.181C153.218 83.9874 153.359 84.6733 153.642 85.2388C153.93 85.8042 154.33 86.2362 154.844 86.5346C155.357 86.8279 155.956 86.9745 156.642 86.9745C157.087 86.9745 157.493 86.9116 157.86 86.786C158.226 86.6551 158.543 86.4613 158.81 86.2048C159.077 85.9482 159.281 85.6315 159.422 85.2545L161.645 85.655C161.467 86.3095 161.148 86.8828 160.687 87.375C160.231 87.862 159.658 88.2416 158.967 88.5138C158.281 88.7809 157.498 88.9144 156.619 88.9144ZM170.031 76.6074V78.4923H163.442V76.6074H170.031ZM165.209 73.7171H167.557V85.1288C167.557 85.5843 167.625 85.9273 167.761 86.1577C167.897 86.3828 168.073 86.5373 168.287 86.621C168.507 86.6996 168.746 86.7388 169.002 86.7388C169.191 86.7388 169.356 86.7258 169.497 86.6996C169.638 86.6734 169.748 86.6525 169.827 86.6367L170.251 88.5767C170.115 88.629 169.921 88.6814 169.67 88.7337C169.418 88.7913 169.104 88.8227 168.727 88.828C168.109 88.8384 167.534 88.7285 166.999 88.4981C166.465 88.2677 166.033 87.9117 165.704 87.43C165.374 86.9483 165.209 86.3435 165.209 85.6157V73.7171ZM178.26 76.6074V78.4923H171.671V76.6074H178.26ZM173.438 73.7171H175.786V85.1288C175.786 85.5843 175.854 85.9273 175.99 86.1577C176.126 86.3828 176.302 86.5373 176.516 86.621C176.736 86.6996 176.975 86.7388 177.231 86.7388C177.42 86.7388 177.584 86.7258 177.726 86.6996C177.867 86.6734 177.977 86.6525 178.056 86.6367L178.48 88.5767C178.344 88.629 178.15 88.6814 177.899 88.7337C177.647 88.7913 177.333 88.8227 176.956 88.828C176.338 88.8384 175.762 88.7285 175.228 88.4981C174.694 88.2677 174.262 87.9117 173.932 87.43C173.603 86.9483 173.438 86.3435 173.438 85.6157V73.7171ZM180.858 88.6709V76.6074H183.206V88.6709H180.858ZM182.044 74.746C181.635 74.746 181.284 74.6099 180.991 74.3376C180.703 74.0601 180.559 73.7302 180.559 73.348C180.559 72.9605 180.703 72.6307 180.991 72.3584C181.284 72.0809 181.635 71.9422 182.044 71.9422C182.452 71.9422 182.8 72.0809 183.088 72.3584C183.381 72.6307 183.528 72.9605 183.528 73.348C183.528 73.7302 183.381 74.0601 183.088 74.3376C182.8 74.6099 182.452 74.746 182.044 74.746ZM188.713 81.5082V88.6709H186.365V76.6074H188.619V78.5708H188.768C189.046 77.932 189.48 77.4189 190.072 77.0315C190.669 76.644 191.42 76.4503 192.326 76.4503C193.148 76.4503 193.868 76.6231 194.486 76.9686C195.104 77.309 195.583 77.8169 195.923 78.4923C196.264 79.1677 196.434 80.0028 196.434 80.9977V88.6709H194.085V81.2804C194.085 80.406 193.858 79.7227 193.402 79.2306C192.947 78.7331 192.321 78.4844 191.525 78.4844C190.981 78.4844 190.496 78.6022 190.072 78.8379C189.653 79.0735 189.321 79.419 189.075 79.8746C188.834 80.3249 188.713 80.8694 188.713 81.5082ZM204.641 93.446C203.683 93.446 202.858 93.3204 202.167 93.0691C201.481 92.8177 200.921 92.4853 200.486 92.0716C200.052 91.658 199.727 91.2051 199.512 90.7129L201.531 89.8804C201.672 90.1108 201.861 90.3542 202.096 90.6108C202.337 90.8726 202.662 91.0951 203.07 91.2784C203.484 91.4616 204.015 91.5533 204.665 91.5533C205.555 91.5533 206.29 91.336 206.872 90.9014C207.453 90.4721 207.743 89.7861 207.743 88.8437V86.4718H207.594C207.453 86.7284 207.249 87.0137 206.982 87.3279C206.72 87.642 206.358 87.9143 205.898 88.1447C205.437 88.3751 204.837 88.4903 204.099 88.4903C203.146 88.4903 202.288 88.2677 201.523 87.8227C200.764 87.3724 200.162 86.71 199.717 85.8357C199.277 84.956 199.057 83.8748 199.057 82.592C199.057 81.3092 199.274 80.2097 199.709 79.2934C200.149 78.3771 200.751 77.6755 201.515 77.1885C202.28 76.6964 203.146 76.4503 204.115 76.4503C204.864 76.4503 205.468 76.5759 205.929 76.8273C206.39 77.0734 206.749 77.3613 207.005 77.6912C207.267 78.0211 207.468 78.3116 207.61 78.563H207.783V76.6074H210.084V88.9379C210.084 89.9746 209.843 90.8255 209.361 91.4904C208.88 92.1554 208.228 92.6476 207.406 92.967C206.589 93.2864 205.667 93.446 204.641 93.446ZM204.618 86.5425C205.293 86.5425 205.864 86.3854 206.33 86.0713C206.801 85.7519 207.157 85.2964 207.398 84.7047C207.644 84.1078 207.767 83.3931 207.767 82.5606C207.767 81.749 207.646 81.0343 207.406 80.4165C207.165 79.7986 206.811 79.3169 206.345 78.9714C205.879 78.6206 205.303 78.4452 204.618 78.4452C203.911 78.4452 203.322 78.6284 202.85 78.9949C202.379 79.3562 202.023 79.8484 201.782 80.4715C201.547 81.0945 201.429 81.7909 201.429 82.5606C201.429 83.3512 201.549 84.045 201.79 84.6419C202.031 85.2388 202.387 85.7048 202.858 86.0399C203.335 86.375 203.921 86.5425 204.618 86.5425Z" fill="#101828"/>
</g>
<g filter="url(#filter1_d_697_6983)">
<rect x="42.8594" y="126.787" width="198" height="84.233" rx="13.2699" fill="white" shape-rendering="crispEdges"/>
<rect x="64.9758" y="148.904" width="36.7193" height="40" rx="8" fill="#FFF8E7"/>
<path d="M88.3513 157.2C88.7947 157.2 89.22 157.376 89.5335 157.69C89.8471 158.003 90.0232 158.429 90.0232 158.872V178.935C90.0232 179.379 89.8471 179.804 89.5335 180.117C89.22 180.431 88.7947 180.607 88.3513 180.607H78.3197C77.8763 180.607 77.451 180.431 77.1375 180.117C76.8239 179.804 76.6478 179.379 76.6478 178.935V158.872C76.6478 158.429 76.8239 158.003 77.1375 157.69C77.451 157.376 77.8763 157.2 78.3197 157.2H88.3513ZM78.3197 155.528C77.4328 155.528 76.5823 155.88 75.9552 156.507C75.3281 157.135 74.9758 157.985 74.9758 158.872V178.935C74.9758 179.822 75.3281 180.672 75.9552 181.3C76.5823 181.927 77.4328 182.279 78.3197 182.279H88.3513C89.2381 182.279 90.0887 181.927 90.7158 181.3C91.3429 180.672 91.6952 179.822 91.6952 178.935V158.872C91.6952 157.985 91.3429 157.135 90.7158 156.507C90.0887 155.88 89.2381 155.528 88.3513 155.528H78.3197Z" fill="#101828"/>
<path d="M83.3355 178.935C83.7789 178.935 84.2042 178.759 84.5177 178.445C84.8313 178.132 85.0074 177.707 85.0074 177.263C85.0074 176.82 84.8313 176.395 84.5177 176.081C84.2042 175.767 83.7789 175.591 83.3355 175.591C82.8921 175.591 82.4668 175.767 82.1533 176.081C81.8397 176.395 81.6636 176.82 81.6636 177.263C81.6636 177.707 81.8397 178.132 82.1533 178.445C82.4668 178.759 82.8921 178.935 83.3355 178.935Z" fill="#101828"/>
<path d="M84.3356 166.056V171.751L86.2534 169.833" stroke="#FBBB0C" stroke-width="0.7" stroke-linecap="round" stroke-linejoin="round"/>
<path d="M82.3354 171.751V166.056L80.4177 167.974" stroke="#FBBB0C" stroke-width="0.7" stroke-linecap="round" stroke-linejoin="round"/>
<path d="M128.116 176.904H122.909V160.819H128.281C129.857 160.819 131.211 161.141 132.342 161.785C133.473 162.424 134.339 163.343 134.941 164.542C135.549 165.735 135.852 167.167 135.852 168.838C135.852 170.513 135.546 171.953 134.933 173.157C134.326 174.362 133.446 175.288 132.294 175.938C131.143 176.582 129.75 176.904 128.116 176.904ZM125.336 174.783H127.983C129.208 174.783 130.226 174.553 131.038 174.092C131.849 173.626 132.457 172.953 132.86 172.073C133.263 171.189 133.465 170.11 133.465 168.838C133.465 167.576 133.263 166.505 132.86 165.625C132.462 164.746 131.868 164.078 131.077 163.623C130.286 163.167 129.305 162.939 128.132 162.939H125.336V174.783ZM142.192 177.171C141.428 177.171 140.737 177.029 140.119 176.746C139.501 176.459 139.011 176.042 138.65 175.498C138.294 174.953 138.116 174.286 138.116 173.495C138.116 172.814 138.247 172.254 138.509 171.814C138.771 171.374 139.124 171.026 139.569 170.77C140.014 170.513 140.512 170.319 141.061 170.189C141.611 170.058 142.171 169.958 142.742 169.89C143.465 169.806 144.051 169.738 144.501 169.686C144.952 169.628 145.279 169.537 145.483 169.411C145.687 169.285 145.789 169.081 145.789 168.798V168.743C145.789 168.057 145.596 167.526 145.208 167.149C144.826 166.772 144.255 166.584 143.496 166.584C142.705 166.584 142.082 166.759 141.627 167.11C141.177 167.455 140.865 167.84 140.692 168.264L138.485 167.762C138.747 167.029 139.129 166.437 139.632 165.987C140.14 165.531 140.724 165.201 141.383 164.997C142.043 164.788 142.737 164.683 143.465 164.683C143.946 164.683 144.457 164.741 144.996 164.856C145.541 164.966 146.049 165.17 146.52 165.468C146.996 165.767 147.386 166.194 147.69 166.749C147.994 167.298 148.146 168.013 148.146 168.893V176.904H145.852V175.254H145.758C145.606 175.558 145.378 175.856 145.075 176.15C144.771 176.443 144.381 176.686 143.904 176.88C143.428 177.074 142.857 177.171 142.192 177.171ZM142.703 175.286C143.352 175.286 143.907 175.157 144.368 174.901C144.834 174.644 145.187 174.309 145.428 173.896C145.674 173.477 145.797 173.029 145.797 172.553V170.997C145.713 171.081 145.551 171.16 145.31 171.233C145.075 171.301 144.805 171.361 144.501 171.414C144.198 171.461 143.902 171.505 143.614 171.547C143.326 171.584 143.085 171.615 142.891 171.641C142.436 171.699 142.019 171.796 141.643 171.932C141.271 172.068 140.972 172.265 140.747 172.521C140.527 172.772 140.417 173.108 140.417 173.526C140.417 174.108 140.632 174.547 141.061 174.846C141.491 175.139 142.038 175.286 142.703 175.286ZM156.905 164.84V166.725H150.315V164.84H156.905ZM152.082 161.95H154.431V173.361C154.431 173.817 154.499 174.16 154.635 174.39C154.771 174.615 154.946 174.77 155.161 174.854C155.381 174.932 155.619 174.972 155.876 174.972C156.064 174.972 156.229 174.958 156.37 174.932C156.512 174.906 156.622 174.885 156.7 174.869L157.124 176.809C156.988 176.862 156.795 176.914 156.543 176.966C156.292 177.024 155.978 177.055 155.601 177.061C154.983 177.071 154.407 176.961 153.873 176.731C153.339 176.5 152.907 176.144 152.577 175.663C152.247 175.181 152.082 174.576 152.082 173.848V161.95ZM163.013 177.171C162.248 177.171 161.557 177.029 160.939 176.746C160.322 176.459 159.832 176.042 159.471 175.498C159.115 174.953 158.937 174.286 158.937 173.495C158.937 172.814 159.068 172.254 159.329 171.814C159.591 171.374 159.945 171.026 160.39 170.77C160.835 170.513 161.332 170.319 161.882 170.189C162.432 170.058 162.992 169.958 163.563 169.89C164.285 169.806 164.872 169.738 165.322 169.686C165.772 169.628 166.099 169.537 166.304 169.411C166.508 169.285 166.61 169.081 166.61 168.798V168.743C166.61 168.057 166.416 167.526 166.029 167.149C165.647 166.772 165.076 166.584 164.317 166.584C163.526 166.584 162.903 166.759 162.447 167.11C161.997 167.455 161.686 167.84 161.513 168.264L159.306 167.762C159.568 167.029 159.95 166.437 160.453 165.987C160.96 165.531 161.544 165.201 162.204 164.997C162.864 164.788 163.557 164.683 164.285 164.683C164.767 164.683 165.277 164.741 165.817 164.856C166.361 164.966 166.869 165.17 167.34 165.468C167.817 165.767 168.207 166.194 168.511 166.749C168.814 167.298 168.966 168.013 168.966 168.893V176.904H166.673V175.254H166.579C166.427 175.558 166.199 175.856 165.895 176.15C165.592 176.443 165.201 176.686 164.725 176.88C164.249 177.074 163.678 177.171 163.013 177.171ZM163.523 175.286C164.173 175.286 164.728 175.157 165.188 174.901C165.654 174.644 166.008 174.309 166.249 173.896C166.495 173.477 166.618 173.029 166.618 172.553V170.997C166.534 171.081 166.372 171.16 166.131 171.233C165.895 171.301 165.626 171.361 165.322 171.414C165.018 171.461 164.722 171.505 164.434 171.547C164.146 171.584 163.906 171.615 163.712 171.641C163.256 171.699 162.84 171.796 162.463 171.932C162.091 172.068 161.793 172.265 161.568 172.521C161.348 172.772 161.238 173.108 161.238 173.526C161.238 174.108 161.453 174.547 161.882 174.846C162.311 175.139 162.858 175.286 163.523 175.286Z" fill="#101828"/>
</g>
<g filter="url(#filter2_d_697_6983)">
<rect x="42.8594" y="215.021" width="213" height="97.8066" rx="13.2699" fill="white" shape-rendering="crispEdges"/>
<rect x="64.9758" y="237.137" width="58.6758" height="53.5736" rx="10.2045" fill="#FFF8E7"/>
<rect x="73.3137" y="243.924" width="42" height="40" rx="8" fill="#FFF8E7"/>
<path d="M99.3296 252.221C99.773 252.221 100.198 252.397 100.512 252.71C100.825 253.024 101.001 253.449 101.001 253.892V273.956C101.001 274.399 100.825 274.824 100.512 275.138C100.198 275.451 99.773 275.628 99.3296 275.628H89.298C88.8545 275.628 88.4293 275.451 88.1157 275.138C87.8022 274.824 87.626 274.399 87.626 273.956V253.892C87.626 253.449 87.8022 253.024 88.1157 252.71C88.4293 252.397 88.8545 252.221 89.298 252.221H99.3296ZM89.298 250.549C88.4111 250.549 87.5606 250.901 86.9335 251.528C86.3064 252.155 85.9541 253.006 85.9541 253.892V273.956C85.9541 274.842 86.3064 275.693 86.9335 276.32C87.5606 276.947 88.4111 277.299 89.298 277.299H99.3296C100.216 277.299 101.067 276.947 101.694 276.32C102.321 275.693 102.673 274.842 102.673 273.956V253.892C102.673 253.006 102.321 252.155 101.694 251.528C101.067 250.901 100.216 250.549 99.3296 250.549H89.298Z" fill="#101828"/>
<path d="M94.3138 273.956C94.7572 273.956 95.1825 273.78 95.496 273.466C95.8096 273.152 95.9857 272.727 95.9857 272.284C95.9857 271.84 95.8096 271.415 95.496 271.102C95.1825 270.788 94.7572 270.612 94.3138 270.612C93.8704 270.612 93.4451 270.788 93.1315 271.102C92.818 271.415 92.6418 271.84 92.6418 272.284C92.6418 272.727 92.818 273.152 93.1315 273.466C93.4451 273.78 93.8704 273.956 94.3138 273.956Z" fill="#101828"/>
<path d="M91.5646 265.503C91.4561 265.503 91.3641 265.465 91.2884 265.389C91.2124 265.314 91.1744 265.222 91.1744 265.113V263.962C91.1744 263.854 91.2124 263.761 91.2884 263.686C91.3637 263.609 91.4558 263.571 91.5646 263.571C91.6735 263.571 91.7655 263.609 91.8409 263.685C91.9168 263.761 91.9548 263.853 91.9548 263.962V265.113C91.9548 265.221 91.9168 265.314 91.8409 265.39C91.7649 265.466 91.6728 265.503 91.5646 265.503ZM94.3694 265.503C94.2609 265.503 94.1687 265.465 94.0927 265.389C94.017 265.313 93.9792 265.221 93.9792 265.113V261.547C93.9792 261.438 94.017 261.346 94.0927 261.271C94.1687 261.195 94.2609 261.157 94.3694 261.157C94.4779 261.157 94.57 261.195 94.6456 261.271C94.7213 261.347 94.7591 261.439 94.7591 261.547V265.113C94.7591 265.221 94.7211 265.314 94.6452 265.39C94.5695 265.465 94.4776 265.503 94.3694 265.503ZM97.0622 265.503C96.954 265.503 96.8619 265.465 96.7859 265.389C96.7103 265.313 96.6724 265.221 96.6724 265.113V259.132C96.6724 259.024 96.7103 258.932 96.7859 258.856C96.8619 258.78 96.954 258.742 97.0622 258.742C97.1703 258.742 97.2626 258.78 97.3389 258.856C97.4145 258.932 97.4523 259.024 97.4523 259.132V265.113C97.4523 265.221 97.4144 265.314 97.3384 265.39C97.2627 265.465 97.1706 265.503 97.0622 265.503Z" fill="#FBBB0C"/>
<path d="M146.128 271.924H143.552L149.341 255.839H152.144L157.933 271.924H155.357L150.809 258.761H150.684L146.128 271.924ZM146.56 265.625H154.917V267.667H146.56V265.625ZM160.175 271.924V259.861H162.523V271.924H160.175ZM161.361 257.999C160.952 257.999 160.602 257.863 160.308 257.591C160.02 257.313 159.876 256.983 159.876 256.601C159.876 256.214 160.02 255.884 160.308 255.612C160.602 255.334 160.952 255.195 161.361 255.195C161.769 255.195 162.117 255.334 162.405 255.612C162.699 255.884 162.845 256.214 162.845 256.601C162.845 256.983 162.699 257.313 162.405 257.591C162.117 257.863 161.769 257.999 161.361 257.999ZM165.682 271.924V259.861H167.952V261.777H168.078C168.298 261.128 168.685 260.617 169.24 260.245C169.801 259.868 170.434 259.68 171.141 259.68C171.288 259.68 171.46 259.685 171.659 259.696C171.863 259.706 172.023 259.719 172.138 259.735V261.981C172.044 261.955 171.877 261.926 171.636 261.895C171.395 261.858 171.154 261.84 170.913 261.84C170.358 261.84 169.863 261.958 169.429 262.193C168.999 262.424 168.659 262.746 168.408 263.159C168.156 263.568 168.031 264.034 168.031 264.557V271.924H165.682ZM180.514 259.861V261.745H173.925V259.861H180.514ZM175.692 256.97H178.041V268.382C178.041 268.838 178.109 269.18 178.245 269.411C178.381 269.636 178.556 269.79 178.771 269.874C178.991 269.953 179.229 269.992 179.486 269.992C179.674 269.992 179.839 269.979 179.98 269.953C180.122 269.927 180.232 269.906 180.31 269.89L180.734 271.83C180.598 271.882 180.405 271.935 180.153 271.987C179.902 272.044 179.588 272.076 179.211 272.081C178.593 272.092 178.017 271.982 177.483 271.751C176.949 271.521 176.517 271.165 176.187 270.683C175.857 270.201 175.692 269.597 175.692 268.869V256.97ZM183.112 271.924V259.861H185.46V271.924H183.112ZM184.298 257.999C183.89 257.999 183.539 257.863 183.246 257.591C182.958 257.313 182.814 256.983 182.814 256.601C182.814 256.214 182.958 255.884 183.246 255.612C183.539 255.334 183.89 255.195 184.298 255.195C184.706 255.195 185.055 255.334 185.343 255.612C185.636 255.884 185.782 256.214 185.782 256.601C185.782 256.983 185.636 257.313 185.343 257.591C185.055 257.863 184.706 257.999 184.298 257.999ZM188.62 271.924V259.861H190.874V261.824H191.023C191.274 261.159 191.685 260.641 192.256 260.269C192.827 259.892 193.51 259.703 194.306 259.703C195.112 259.703 195.788 259.892 196.332 260.269C196.882 260.646 197.288 261.164 197.55 261.824H197.675C197.963 261.18 198.421 260.667 199.05 260.285C199.678 259.897 200.427 259.703 201.296 259.703C202.39 259.703 203.283 260.046 203.974 260.732C204.67 261.418 205.019 262.452 205.019 263.835V271.924H202.67V264.054C202.67 263.238 202.448 262.646 202.003 262.28C201.558 261.913 201.026 261.73 200.408 261.73C199.644 261.73 199.05 261.965 198.626 262.437C198.201 262.903 197.989 263.502 197.989 264.235V271.924H195.649V263.905C195.649 263.251 195.445 262.725 195.036 262.327C194.628 261.929 194.096 261.73 193.442 261.73C192.997 261.73 192.586 261.848 192.209 262.083C191.837 262.314 191.536 262.636 191.306 263.049C191.081 263.463 190.968 263.942 190.968 264.486V271.924H188.62ZM213.365 272.168C212.177 272.168 211.153 271.914 210.294 271.406C209.441 270.893 208.781 270.173 208.315 269.246C207.854 268.314 207.624 267.222 207.624 265.971C207.624 264.735 207.854 263.646 208.315 262.704C208.781 261.761 209.43 261.026 210.263 260.497C211.101 259.968 212.08 259.703 213.2 259.703C213.881 259.703 214.541 259.816 215.18 260.041C215.818 260.266 216.392 260.62 216.899 261.101C217.407 261.583 217.808 262.209 218.101 262.979C218.394 263.743 218.541 264.672 218.541 265.767V266.599H208.951V264.84H216.24C216.24 264.222 216.114 263.675 215.863 263.198C215.611 262.717 215.258 262.337 214.803 262.06C214.352 261.782 213.823 261.643 213.216 261.643C212.556 261.643 211.98 261.806 211.488 262.13C211.001 262.45 210.624 262.869 210.357 263.387C210.095 263.9 209.965 264.458 209.965 265.06V266.434C209.965 267.241 210.106 267.926 210.389 268.492C210.677 269.057 211.077 269.489 211.59 269.788C212.103 270.081 212.703 270.228 213.389 270.228C213.834 270.228 214.24 270.165 214.606 270.039C214.973 269.908 215.289 269.715 215.556 269.458C215.824 269.201 216.028 268.885 216.169 268.508L218.392 268.908C218.214 269.563 217.894 270.136 217.434 270.628C216.978 271.115 216.405 271.495 215.714 271.767C215.028 272.034 214.245 272.168 213.365 272.168Z" fill="#101828"/>
</g>
<g filter="url(#filter3_d_697_6983)">
<rect x="472.348" y="38.5544" width="162.556" height="84.233" rx="13.2699" fill="white" shape-rendering="crispEdges"/>
<rect x="494.464" y="60.6709" width="42" height="40" rx="8" fill="#FFF8E7"/>
<path d="M526.949 74.4793C526.222 73.1338 524.71 72.2404 522.971 72.2404H518.031L520.792 69.3878C521.238 68.9411 521.238 68.2683 520.792 67.8216C520.345 67.3749 519.672 67.3749 519.225 67.8216L515.474 71.7075L511.723 67.8216C511.276 67.4287 510.603 67.3749 510.156 67.8216C509.764 68.2683 509.71 68.9411 510.156 69.3878L512.912 72.2457L507.971 72.2996C506.233 72.2996 504.667 73.193 503.994 74.5385C500.915 80.6957 502.648 86.5784 503.994 89.544C504.624 90.8572 506.039 91.7722 507.691 91.8852V92.7356C507.691 93.3492 508.197 93.8551 508.811 93.8551C509.424 93.8551 509.93 93.3492 509.93 92.7356V91.896L521.018 91.9498V92.7356C521.018 93.3492 521.524 93.8551 522.137 93.8551C522.751 93.8551 523.203 93.3492 523.257 92.7356V91.939C524.855 91.8314 526.271 90.9541 526.954 89.4848C528.24 86.5192 530.027 80.6419 526.949 74.4793ZM524.936 88.6452C524.656 89.2587 523.687 89.7647 522.788 89.7647H508.025C507.132 89.7647 506.287 89.3718 506.007 88.699C504.834 86.1209 503.262 80.9702 505.953 75.5988C506.287 74.9261 507.072 74.5332 507.971 74.5332L522.977 74.4793C523.87 74.4793 524.656 74.9261 524.995 75.545C527.675 80.9218 526.109 86.0725 524.936 88.6452Z" fill="#101828"/>
<path d="M521.744 79.1726C522.434 79.1726 522.993 78.6136 522.993 77.924C522.993 77.2343 522.434 76.6753 521.744 76.6753C521.054 76.6753 520.495 77.2343 520.495 77.924C520.495 78.6136 521.054 79.1726 521.744 79.1726Z" fill="#FBBB0C"/>
<path d="M521.744 87.5742C522.434 87.5742 522.993 87.0152 522.993 86.3256C522.993 85.6359 522.434 85.0769 521.744 85.0769C521.054 85.0769 520.495 85.6359 520.495 86.3256C520.495 87.0152 521.054 87.5742 521.744 87.5742Z" fill="#FBBB0C"/>
<path d="M556.625 74.6753V72.5862H569.074V74.6753H564.055V88.6709H561.636V74.6753H556.625ZM573.23 72.5862L577.707 85.6864H577.888L582.364 72.5862H584.988L579.199 88.6709H576.395L570.607 72.5862H573.23Z" fill="#101828"/>
</g>
<g filter="url(#filter4_d_697_6983)">
<rect x="430.326" y="126.787" width="204.578" height="97.3126" rx="13.2699" fill="white" shape-rendering="crispEdges"/>
<rect x="452.443" y="148.904" width="58.6758" height="53.5736" rx="10.2045" fill="#FFF8E7"/>
<path d="M494.387 175.69C494.387 168.646 488.677 162.935 481.632 162.935C474.587 162.935 468.876 168.646 468.876 175.69C468.876 182.735 474.587 188.446 481.632 188.446" stroke="#101828" stroke-width="1.91334" stroke-linecap="round" stroke-linejoin="round"/>
<path d="M482.907 162.999C482.907 162.999 486.734 168.037 486.734 175.69M480.356 188.382C480.356 188.382 476.529 183.344 476.529 175.69C476.529 168.037 480.356 162.999 480.356 162.999M469.68 180.155H481.632M469.68 171.226H493.584" stroke="#101828" stroke-width="1.91334" stroke-linecap="round" stroke-linejoin="round"/>
<path d="M494.234 183.238C494.864 183.625 494.824 184.568 494.176 184.642L490.902 185.013L489.434 187.962C489.143 188.548 488.244 188.261 488.094 187.536L486.494 179.735C486.367 179.123 486.918 178.738 487.45 179.065L494.234 183.238Z" stroke="#FBBB0C" stroke-width="1.91334"/>
<path d="M534.859 167.606V183.69H532.432V167.606H534.859ZM540.553 176.528V183.69H538.204V171.627H540.459V173.59H540.608C540.885 172.952 541.32 172.438 541.911 172.051C542.508 171.664 543.26 171.47 544.166 171.47C544.988 171.47 545.708 171.643 546.325 171.988C546.943 172.329 547.422 172.836 547.763 173.512C548.103 174.187 548.273 175.022 548.273 176.017V183.69H545.925V176.3C545.925 175.426 545.697 174.742 545.242 174.25C544.786 173.753 544.16 173.504 543.364 173.504C542.82 173.504 542.336 173.622 541.911 173.857C541.493 174.093 541.16 174.439 540.914 174.894C540.673 175.344 540.553 175.889 540.553 176.528ZM557.054 171.627V173.512H550.464V171.627H557.054ZM552.231 168.737H554.58V180.148C554.58 180.604 554.648 180.947 554.784 181.177C554.92 181.402 555.096 181.557 555.31 181.641C555.53 181.719 555.768 181.758 556.025 181.758C556.213 181.758 556.378 181.745 556.52 181.719C556.661 181.693 556.771 181.672 556.85 181.656L557.274 183.596C557.138 183.649 556.944 183.701 556.692 183.753C556.441 183.811 556.127 183.842 555.75 183.848C555.132 183.858 554.556 183.748 554.022 183.518C553.488 183.287 553.056 182.931 552.726 182.45C552.396 181.968 552.231 181.363 552.231 180.635V168.737ZM564.721 183.934C563.533 183.934 562.509 183.68 561.65 183.172C560.797 182.659 560.137 181.939 559.671 181.012C559.21 180.08 558.98 178.989 558.98 177.737C558.98 176.502 559.21 175.412 559.671 174.47C560.137 173.528 560.786 172.792 561.619 172.263C562.457 171.734 563.436 171.47 564.556 171.47C565.237 171.47 565.897 171.582 566.535 171.808C567.174 172.033 567.747 172.386 568.255 172.868C568.763 173.35 569.164 173.975 569.457 174.745C569.75 175.509 569.897 176.439 569.897 177.533V178.366H560.307V176.606H567.596C567.596 175.988 567.47 175.441 567.219 174.965C566.967 174.483 566.614 174.103 566.158 173.826C565.708 173.548 565.179 173.41 564.572 173.41C563.912 173.41 563.336 173.572 562.844 173.897C562.357 174.216 561.98 174.635 561.713 175.153C561.451 175.666 561.32 176.224 561.32 176.826V178.201C561.32 179.007 561.462 179.693 561.744 180.258C562.032 180.824 562.433 181.256 562.946 181.554C563.459 181.847 564.059 181.994 564.745 181.994C565.19 181.994 565.595 181.931 565.962 181.806C566.329 181.675 566.645 181.481 566.912 181.224C567.179 180.968 567.384 180.651 567.525 180.274L569.748 180.675C569.57 181.329 569.25 181.902 568.789 182.395C568.334 182.881 567.761 183.261 567.069 183.533C566.383 183.8 565.601 183.934 564.721 183.934ZM572.502 183.69V171.627H574.772V173.543H574.898C575.118 172.894 575.505 172.383 576.06 172.012C576.62 171.635 577.254 171.446 577.961 171.446C578.107 171.446 578.28 171.451 578.479 171.462C578.683 171.472 578.843 171.486 578.958 171.501V173.747C578.864 173.721 578.696 173.692 578.456 173.661C578.215 173.624 577.974 173.606 577.733 173.606C577.178 173.606 576.683 173.724 576.249 173.959C575.819 174.19 575.479 174.512 575.228 174.926C574.976 175.334 574.851 175.8 574.851 176.324V183.69H572.502ZM583.339 176.528V183.69H580.99V171.627H583.244V173.59H583.394C583.671 172.952 584.106 172.438 584.697 172.051C585.294 171.664 586.046 171.47 586.951 171.47C587.773 171.47 588.493 171.643 589.111 171.988C589.729 172.329 590.208 172.836 590.549 173.512C590.889 174.187 591.059 175.022 591.059 176.017V183.69H588.711V176.3C588.711 175.426 588.483 174.742 588.027 174.25C587.572 173.753 586.946 173.504 586.15 173.504C585.606 173.504 585.121 173.622 584.697 173.857C584.279 174.093 583.946 174.439 583.7 174.894C583.459 175.344 583.339 175.889 583.339 176.528ZM599.408 183.934C598.219 183.934 597.196 183.68 596.337 183.172C595.483 182.659 594.824 181.939 594.358 181.012C593.897 180.08 593.667 178.989 593.667 177.737C593.667 176.502 593.897 175.412 594.358 174.47C594.824 173.528 595.473 172.792 596.305 172.263C597.143 171.734 598.122 171.47 599.243 171.47C599.923 171.47 600.583 171.582 601.222 171.808C601.861 172.033 602.434 172.386 602.942 172.868C603.45 173.35 603.85 173.975 604.144 174.745C604.437 175.509 604.583 176.439 604.583 177.533V178.366H594.994V176.606H602.282C602.282 175.988 602.157 175.441 601.905 174.965C601.654 174.483 601.3 174.103 600.845 173.826C600.395 173.548 599.866 173.41 599.258 173.41C598.599 173.41 598.023 173.572 597.531 173.897C597.044 174.216 596.667 174.635 596.4 175.153C596.138 175.666 596.007 176.224 596.007 176.826V178.201C596.007 179.007 596.148 179.693 596.431 180.258C596.719 180.824 597.12 181.256 597.633 181.554C598.146 181.847 598.745 181.994 599.431 181.994C599.876 181.994 600.282 181.931 600.649 181.806C601.015 181.675 601.332 181.481 601.599 181.224C601.866 180.968 602.07 180.651 602.212 180.274L604.434 180.675C604.256 181.329 603.937 181.902 603.476 182.395C603.02 182.881 602.447 183.261 601.756 183.533C601.07 183.8 600.287 183.934 599.408 183.934ZM612.82 171.627V173.512H606.231V171.627H612.82ZM607.998 168.737H610.346V180.148C610.346 180.604 610.414 180.947 610.55 181.177C610.686 181.402 610.862 181.557 611.077 181.641C611.296 181.719 611.535 181.758 611.791 181.758C611.98 181.758 612.145 181.745 612.286 181.719C612.427 181.693 612.537 181.672 612.616 181.656L613.04 183.596C612.904 183.649 612.71 183.701 612.459 183.753C612.208 183.811 611.893 183.842 611.516 183.848C610.899 183.858 610.323 183.748 609.789 183.518C609.254 183.287 608.823 182.931 608.493 182.45C608.163 181.968 607.998 181.363 607.998 180.635V168.737Z" fill="#101828"/>
</g>
<g filter="url(#filter5_d_697_6983)">
<rect x="413.904" y="228.1" width="221" height="97" rx="13.2699" fill="white" shape-rendering="crispEdges"/>
<path d="M436.02 258.217C436.02 253.798 439.602 250.217 444.02 250.217H470.02C474.438 250.217 478.02 253.798 478.02 258.217V288.217C478.02 292.635 474.438 296.217 470.02 296.217H444.02C439.602 296.217 436.02 292.635 436.02 288.217V258.217Z" fill="#FFF8E7"/>
<g clip-path="url(#clip0_697_6983)">
<path d="M457.947 269.35C457.662 269.35 457.388 269.509 457.255 269.779L457.255 269.78L455.134 274.125C455.014 274.368 455.035 274.654 455.181 274.876L455.183 274.878C455.329 275.096 455.571 275.217 455.819 275.219H455.823L456.759 275.222L455.707 277.68C455.546 278.055 455.714 278.467 456.049 278.647V278.648C456.168 278.712 456.295 278.74 456.415 278.74C456.643 278.74 456.878 278.637 457.032 278.431H457.033L460.156 274.246C460.332 274.011 460.356 273.696 460.217 273.437V273.435L460.16 273.345C460.014 273.147 459.781 273.033 459.539 273.033L458.789 273.032L460.304 270.501L460.305 270.5C460.431 270.289 460.445 270.034 460.35 269.813L460.303 269.721C460.16 269.483 459.904 269.35 459.644 269.35H457.947ZM455.174 281.163L455.142 280.371C455.135 279.906 454.927 279.409 454.699 278.969C454.457 278.501 454.135 277.992 453.823 277.498C452.825 275.917 451.713 274.128 451.713 272.128C451.713 269.175 454.228 266.728 457.373 266.728H457.385C460.53 266.728 463.046 269.175 463.046 272.128C463.045 274.226 461.919 276.007 460.913 277.576C460.595 278.072 460.277 278.565 460.043 279.013C459.82 279.44 459.623 279.913 459.617 280.371H459.616L459.585 281.163L459.584 281.175V281.264C459.574 281.267 459.564 281.271 459.553 281.273C459.248 281.341 458.818 281.39 458.36 281.424C457.908 281.457 457.453 281.472 457.11 281.48C456.939 281.484 456.795 281.486 456.696 281.487C456.647 281.487 456.608 281.488 456.582 281.488H456.543L456.541 282.688H456.583C456.611 282.688 456.655 282.688 456.71 282.689C456.819 282.691 456.976 282.694 457.164 282.7C457.542 282.711 458.043 282.733 458.54 282.777C458.635 282.785 458.729 282.796 458.822 282.805C458.315 282.859 457.783 282.886 457.378 282.9L457.401 284.1C457.665 284.099 457.98 284.102 458.298 284.117H455.214C455.236 284.093 455.262 284.069 455.284 284.042C455.375 283.926 455.472 283.748 455.472 283.514C455.472 283.12 455.169 282.911 455.089 282.857C455.05 282.832 455.006 282.807 454.963 282.783C454.995 282.763 455.029 282.746 455.056 282.727C455.109 282.691 455.187 282.632 455.257 282.548C455.33 282.461 455.421 282.313 455.429 282.113V282.111C455.438 281.878 455.345 281.702 455.266 281.594C455.226 281.538 455.179 281.489 455.141 281.451L455.174 281.395V281.163Z" stroke="#101828" stroke-width="1.2"/>
<path d="M460.904 265.855C461.029 265.913 461.162 265.94 461.293 265.94C461.625 265.94 461.945 265.762 462.099 265.456L463.365 262.948C463.58 262.522 463.394 262.009 462.949 261.802C462.504 261.596 461.968 261.775 461.753 262.201L460.488 264.709C460.272 265.135 460.459 265.648 460.904 265.855Z" fill="#FBBB0C"/>
<path d="M452.659 265.456C452.814 265.762 453.133 265.94 453.466 265.94C453.596 265.94 453.729 265.913 453.855 265.855C454.3 265.648 454.486 265.135 454.271 264.709L453.006 262.201C452.79 261.775 452.255 261.596 451.81 261.802C451.365 262.009 451.179 262.522 451.394 262.948L452.659 265.456Z" fill="#FBBB0C"/>
<path d="M469.049 270.329C468.886 269.882 468.376 269.645 467.909 269.801L465.164 270.716C464.697 270.872 464.45 271.361 464.612 271.808C464.741 272.162 465.087 272.384 465.458 272.384C465.555 272.384 465.655 272.369 465.752 272.336L468.497 271.421C468.964 271.266 469.211 270.777 469.049 270.329Z" fill="#FBBB0C"/>
<path d="M449.596 270.716L446.85 269.801C446.383 269.645 445.873 269.882 445.711 270.329C445.548 270.777 445.795 271.266 446.262 271.421L449.007 272.336C449.105 272.369 449.204 272.384 449.301 272.384C449.672 272.384 450.018 272.162 450.147 271.808C450.309 271.361 450.062 270.872 449.596 270.716Z" fill="#FBBB0C"/>
</g>
<path d="M498.965 281.217V265.132H509.05V267.221H501.392V272.122H508.523V274.203H501.392V279.127H509.144V281.217H498.965ZM514.451 265.132V281.217H512.103V265.132H514.451ZM522.81 281.46C521.621 281.46 520.597 281.206 519.739 280.698C518.885 280.185 518.226 279.465 517.76 278.538C517.299 277.606 517.068 276.515 517.068 275.263C517.068 274.028 517.299 272.939 517.76 271.996C518.226 271.054 518.875 270.318 519.707 269.789C520.545 269.26 521.524 268.996 522.645 268.996C523.325 268.996 523.985 269.109 524.624 269.334C525.263 269.559 525.836 269.912 526.344 270.394C526.852 270.876 527.252 271.501 527.546 272.271C527.839 273.035 527.985 273.965 527.985 275.059V275.892H518.396V274.132H525.684C525.684 273.515 525.559 272.967 525.307 272.491C525.056 272.009 524.702 271.63 524.247 271.352C523.797 271.075 523.268 270.936 522.66 270.936C522.001 270.936 521.425 271.098 520.933 271.423C520.446 271.742 520.069 272.161 519.802 272.679C519.54 273.193 519.409 273.75 519.409 274.352V275.727C519.409 276.533 519.55 277.219 519.833 277.784C520.121 278.35 520.522 278.782 521.035 279.08C521.548 279.374 522.147 279.52 522.833 279.52C523.278 279.52 523.684 279.457 524.051 279.332C524.417 279.201 524.734 279.007 525.001 278.75C525.268 278.494 525.472 278.177 525.614 277.8L527.836 278.201C527.658 278.855 527.339 279.428 526.878 279.921C526.422 280.408 525.849 280.787 525.158 281.059C524.472 281.327 523.689 281.46 522.81 281.46ZM535.672 281.46C534.505 281.46 533.499 281.196 532.656 280.667C531.819 280.133 531.175 279.397 530.724 278.46C530.274 277.523 530.049 276.449 530.049 275.24C530.049 274.015 530.279 272.933 530.74 271.996C531.201 271.054 531.85 270.318 532.688 269.789C533.526 269.26 534.513 268.996 535.649 268.996C536.565 268.996 537.382 269.166 538.099 269.506C538.817 269.842 539.395 270.313 539.835 270.92C540.28 271.527 540.544 272.237 540.628 273.049H538.343C538.217 272.483 537.929 271.996 537.479 271.588C537.034 271.179 536.437 270.975 535.688 270.975C535.034 270.975 534.46 271.148 533.968 271.493C533.481 271.834 533.102 272.321 532.829 272.954C532.557 273.583 532.421 274.326 532.421 275.185C532.421 276.064 532.554 276.824 532.821 277.462C533.088 278.101 533.465 278.596 533.952 278.947C534.445 279.298 535.023 279.473 535.688 279.473C536.133 279.473 536.536 279.392 536.898 279.23C537.264 279.062 537.57 278.824 537.816 278.515C538.068 278.206 538.243 277.834 538.343 277.4H540.628C540.544 278.18 540.29 278.876 539.866 279.489C539.442 280.101 538.874 280.583 538.162 280.934C537.455 281.285 536.625 281.46 535.672 281.46ZM548.771 269.153V271.038H542.181V269.153H548.771ZM543.948 266.263H546.297V277.674C546.297 278.13 546.365 278.473 546.501 278.703C546.637 278.928 546.812 279.083 547.027 279.167C547.247 279.245 547.485 279.285 547.742 279.285C547.93 279.285 548.095 279.271 548.237 279.245C548.378 279.219 548.488 279.198 548.566 279.182L548.991 281.122C548.854 281.175 548.661 281.227 548.409 281.279C548.158 281.337 547.844 281.368 547.467 281.374C546.849 281.384 546.273 281.274 545.739 281.044C545.205 280.813 544.773 280.457 544.443 279.976C544.113 279.494 543.948 278.889 543.948 278.161V266.263ZM551.368 281.217V269.153H553.717V281.217H551.368ZM552.554 267.292C552.146 267.292 551.795 267.156 551.502 266.883C551.214 266.606 551.07 266.276 551.07 265.894C551.07 265.506 551.214 265.176 551.502 264.904C551.795 264.627 552.146 264.488 552.554 264.488C552.963 264.488 553.311 264.627 553.599 264.904C553.892 265.176 554.039 265.506 554.039 265.894C554.039 266.276 553.892 266.606 553.599 266.883C553.311 267.156 552.963 267.292 552.554 267.292ZM561.957 281.46C560.79 281.46 559.784 281.196 558.941 280.667C558.104 280.133 557.46 279.397 557.009 278.46C556.559 277.523 556.334 276.449 556.334 275.24C556.334 274.015 556.564 272.933 557.025 271.996C557.486 271.054 558.135 270.318 558.973 269.789C559.811 269.26 560.798 268.996 561.934 268.996C562.85 268.996 563.667 269.166 564.384 269.506C565.101 269.842 565.68 270.313 566.12 270.92C566.565 271.527 566.829 272.237 566.913 273.049H564.628C564.502 272.483 564.214 271.996 563.764 271.588C563.319 271.179 562.722 270.975 561.973 270.975C561.318 270.975 560.745 271.148 560.253 271.493C559.766 271.834 559.386 272.321 559.114 272.954C558.842 273.583 558.706 274.326 558.706 275.185C558.706 276.064 558.839 276.824 559.106 277.462C559.373 278.101 559.75 278.596 560.237 278.947C560.729 279.298 561.308 279.473 561.973 279.473C562.418 279.473 562.821 279.392 563.182 279.23C563.549 279.062 563.855 278.824 564.101 278.515C564.353 278.206 564.528 277.834 564.628 277.4H566.913C566.829 278.18 566.575 278.876 566.151 279.489C565.727 280.101 565.159 280.583 564.447 280.934C563.74 281.285 562.91 281.46 561.957 281.46ZM569.424 281.217V269.153H571.773V281.217H569.424ZM570.61 267.292C570.202 267.292 569.851 267.156 569.558 266.883C569.27 266.606 569.126 266.276 569.126 265.894C569.126 265.506 569.27 265.176 569.558 264.904C569.851 264.627 570.202 264.488 570.61 264.488C571.019 264.488 571.367 264.627 571.655 264.904C571.948 265.176 572.095 265.506 572.095 265.894C572.095 266.276 571.948 266.606 571.655 266.883C571.367 267.156 571.019 267.292 570.61 267.292ZM580.563 269.153V271.038H573.974V269.153H580.563ZM575.741 266.263H578.089V277.674C578.089 278.13 578.157 278.473 578.293 278.703C578.429 278.928 578.605 279.083 578.82 279.167C579.039 279.245 579.278 279.285 579.534 279.285C579.723 279.285 579.888 279.271 580.029 279.245C580.17 279.219 580.28 279.198 580.359 279.182L580.783 281.122C580.647 281.175 580.453 281.227 580.202 281.279C579.95 281.337 579.636 281.368 579.259 281.374C578.642 281.384 578.066 281.274 577.531 281.044C576.997 280.813 576.565 280.457 576.236 279.976C575.906 279.494 575.741 278.889 575.741 278.161V266.263ZM584.645 285.74C584.294 285.74 583.975 285.712 583.687 285.654C583.399 285.602 583.184 285.544 583.043 285.481L583.608 283.557C584.038 283.672 584.42 283.722 584.755 283.706C585.09 283.691 585.386 283.565 585.643 283.329C585.904 283.094 586.135 282.709 586.334 282.175L586.624 281.374L582.21 269.153H584.724L587.779 278.515H587.904L590.96 269.153H593.481L588.509 282.827C588.279 283.455 587.986 283.986 587.63 284.421C587.274 284.861 586.849 285.191 586.357 285.411C585.865 285.63 585.294 285.74 584.645 285.74Z" fill="#101828"/>
</g>
</g>
<defs>
<filter id="filter0_d_697_6983" x="20.7429" y="21.9671" width="242.577" height="128.466" filterUnits="userSpaceOnUse" color-interpolation-filters="sRGB">
<feFlood flood-opacity="0" result="BackgroundImageFix"/>
<feColorMatrix in="SourceAlpha" type="matrix" values="0 0 0 0 0 0 0 0 0 0 0 0 0 0 0 0 0 0 127 0" result="hardAlpha"/>
<feOffset dy="5.52912"/>
<feGaussianBlur stdDeviation="11.0582"/>
<feComposite in2="hardAlpha" operator="out"/>
<feColorMatrix type="matrix" values="0 0 0 0 0 0 0 0 0 0 0 0 0 0 0 0 0 0 0.1 0"/>
<feBlend mode="normal" in2="BackgroundImageFix" result="effect1_dropShadow_697_6983"/>
<feBlend mode="normal" in="SourceGraphic" in2="effect1_dropShadow_697_6983" result="shape"/>
</filter>
<filter id="filter1_d_697_6983" x="31.8011" y="122.364" width="220.116" height="106.349" filterUnits="userSpaceOnUse" color-interpolation-filters="sRGB">
<feFlood flood-opacity="0" result="BackgroundImageFix"/>
<feColorMatrix in="SourceAlpha" type="matrix" values="0 0 0 0 0 0 0 0 0 0 0 0 0 0 0 0 0 0 127 0" result="hardAlpha"/>
<feOffset dy="6.63495"/>
<feGaussianBlur stdDeviation="5.52912"/>
<feComposite in2="hardAlpha" operator="out"/>
<feColorMatrix type="matrix" values="0 0 0 0 0 0 0 0 0 0 0 0 0 0 0 0 0 0 0.1 0"/>
<feBlend mode="normal" in2="BackgroundImageFix" result="effect1_dropShadow_697_6983"/>
<feBlend mode="normal" in="SourceGraphic" in2="effect1_dropShadow_697_6983" result="shape"/>
</filter>
<filter id="filter2_d_697_6983" x="37.3303" y="209.491" width="224.058" height="108.865" filterUnits="userSpaceOnUse" color-interpolation-filters="sRGB">
<feFlood flood-opacity="0" result="BackgroundImageFix"/>
<feColorMatrix in="SourceAlpha" type="matrix" values="0 0 0 0 0 0 0 0 0 0 0 0 0 0 0 0 0 0 127 0" result="hardAlpha"/>
<feOffset/>
<feGaussianBlur stdDeviation="2.76456"/>
<feComposite in2="hardAlpha" operator="out"/>
<feColorMatrix type="matrix" values="0 0 0 0 0 0 0 0 0 0 0 0 0 0 0 0 0 0 0.1 0"/>
<feBlend mode="normal" in2="BackgroundImageFix" result="effect1_dropShadow_697_6983"/>
<feBlend mode="normal" in="SourceGraphic" in2="effect1_dropShadow_697_6983" result="shape"/>
</filter>
<filter id="filter3_d_697_6983" x="450.231" y="21.9671" width="206.789" height="128.466" filterUnits="userSpaceOnUse" color-interpolation-filters="sRGB">
<feFlood flood-opacity="0" result="BackgroundImageFix"/>
<feColorMatrix in="SourceAlpha" type="matrix" values="0 0 0 0 0 0 0 0 0 0 0 0 0 0 0 0 0 0 127 0" result="hardAlpha"/>
<feOffset dy="5.52912"/>
<feGaussianBlur stdDeviation="11.0582"/>
<feComposite in2="hardAlpha" operator="out"/>
<feColorMatrix type="matrix" values="0 0 0 0 0 0 0 0 0 0 0 0 0 0 0 0 0 0 0.1 0"/>
<feBlend mode="normal" in2="BackgroundImageFix" result="effect1_dropShadow_697_6983"/>
<feBlend mode="normal" in="SourceGraphic" in2="effect1_dropShadow_697_6983" result="shape"/>
</filter>
<filter id="filter4_d_697_6983" x="419.268" y="122.364" width="226.694" height="119.429" filterUnits="userSpaceOnUse" color-interpolation-filters="sRGB">
<feFlood flood-opacity="0" result="BackgroundImageFix"/>
<feColorMatrix in="SourceAlpha" type="matrix" values="0 0 0 0 0 0 0 0 0 0 0 0 0 0 0 0 0 0 127 0" result="hardAlpha"/>
<feOffset dy="6.63495"/>
<feGaussianBlur stdDeviation="5.52912"/>
<feComposite in2="hardAlpha" operator="out"/>
<feColorMatrix type="matrix" values="0 0 0 0 0 0 0 0 0 0 0 0 0 0 0 0 0 0 0.1 0"/>
<feBlend mode="normal" in2="BackgroundImageFix" result="effect1_dropShadow_697_6983"/>
<feBlend mode="normal" in="SourceGraphic" in2="effect1_dropShadow_697_6983" result="shape"/>
</filter>
<filter id="filter5_d_697_6983" x="408.375" y="222.571" width="232.058" height="108.058" filterUnits="userSpaceOnUse" color-interpolation-filters="sRGB">
<feFlood flood-opacity="0" result="BackgroundImageFix"/>
<feColorMatrix in="SourceAlpha" type="matrix" values="0 0 0 0 0 0 0 0 0 0 0 0 0 0 0 0 0 0 127 0" result="hardAlpha"/>
<feOffset/>
<feGaussianBlur stdDeviation="2.76456"/>
<feComposite in2="hardAlpha" operator="out"/>
<feColorMatrix type="matrix" values="0 0 0 0 0 0 0 0 0 0 0 0 0 0 0 0 0 0 0.1 0"/>
<feBlend mode="normal" in2="BackgroundImageFix" result="effect1_dropShadow_697_6983"/>
<feBlend mode="normal" in="SourceGraphic" in2="effect1_dropShadow_697_6983" result="shape"/>
</filter>
<linearGradient id="paint0_linear_697_6983" x1="334.712" y1="459.873" x2="8.49427" y2="9.8029" gradientUnits="userSpaceOnUse">
<stop stop-color="#7D9DF9"/>
<stop offset="1" stop-color="#7D9DF9" stop-opacity="0"/>
</linearGradient>
<linearGradient id="paint1_linear_697_6983" x1="363.464" y1="461.532" x2="37.2461" y2="11.4614" gradientUnits="userSpaceOnUse">
<stop stop-color="#7D9DF9"/>
<stop offset="1" stop-color="#7D9DF9" stop-opacity="0"/>
</linearGradient>
<linearGradient id="paint2_linear_697_6983" x1="351.3" y1="447.709" x2="25.0816" y2="-2.36136" gradientUnits="userSpaceOnUse">
<stop stop-color="#7D9DF9"/>
<stop offset="1" stop-color="#7D9DF9" stop-opacity="0"/>
</linearGradient>
<linearGradient id="paint3_linear_697_6983" x1="314.254" y1="459.873" x2="640.473" y2="9.80266" gradientUnits="userSpaceOnUse">
<stop stop-color="#7D9DF9"/>
<stop offset="1" stop-color="#7D9DF9" stop-opacity="0"/>
</linearGradient>
<linearGradient id="paint4_linear_697_6983" x1="326.419" y1="446.05" x2="652.637" y2="-4.02005" gradientUnits="userSpaceOnUse">
<stop stop-color="#7D9DF9"/>
<stop offset="1" stop-color="#AEC1FA" stop-opacity="0"/>
</linearGradient>
<clipPath id="clip0_697_6983">
<rect width="24" height="23" fill="white" transform="translate(445.38 261.717)"/>
</clipPath>
</defs>
</svg>
